<mxfile host="app.diagrams.net" modified="2022-02-11T06:38:19.613Z" agent="5.0 (Windows NT 10.0; Win64; x64) AppleWebKit/537.36 (KHTML, like Gecko) Chrome/98.0.4758.82 Safari/537.36" etag="4eAJ4Jc6BK7gBNKIyYa3" version="16.5.5" type="github">
  <diagram id="gUhN11qYkWxtTLKya9Cd" name="Page-1">
    <mxGraphModel dx="1673" dy="896" grid="1" gridSize="10" guides="1" tooltips="1" connect="1" arrows="1" fold="1" page="1" pageScale="1" pageWidth="827" pageHeight="1169" math="0" shadow="0">
      <root>
        <mxCell id="0" />
        <mxCell id="1" parent="0" />
        <mxCell id="otaZ61-eJIEUoGd5LH7k-2" value="Enkel framstilling av programlogikk" style="swimlane;childLayout=stackLayout;resizeParent=1;resizeParentMax=0;startSize=20;" parent="1" vertex="1">
          <mxGeometry x="28" y="110" width="1060" height="770" as="geometry" />
        </mxCell>
        <mxCell id="pSStkDloC_WOc6RokfLj-7" value="Hovedmål" style="swimlane;startSize=20;" vertex="1" parent="otaZ61-eJIEUoGd5LH7k-2">
          <mxGeometry y="20" width="290" height="750" as="geometry">
            <mxRectangle y="20" width="30" height="460" as="alternateBounds" />
          </mxGeometry>
        </mxCell>
        <mxCell id="pSStkDloC_WOc6RokfLj-9" value="Styrke internasjonalisering" style="whiteSpace=wrap;html=1;" vertex="1" parent="pSStkDloC_WOc6RokfLj-7">
          <mxGeometry x="80" y="440" width="120" height="60" as="geometry" />
        </mxCell>
        <mxCell id="pSStkDloC_WOc6RokfLj-10" value="Styrke forskerutdanning på områder som er viktige for industri og forksningsmiljøer" style="whiteSpace=wrap;html=1;" vertex="1" parent="pSStkDloC_WOc6RokfLj-7">
          <mxGeometry x="80" y="170" width="120" height="70" as="geometry" />
        </mxCell>
        <mxCell id="pSStkDloC_WOc6RokfLj-11" value="Økt innovasjon" style="whiteSpace=wrap;html=1;" vertex="1" parent="pSStkDloC_WOc6RokfLj-7">
          <mxGeometry x="55" y="40" width="170" height="90" as="geometry" />
        </mxCell>
        <mxCell id="pSStkDloC_WOc6RokfLj-12" value="Økte investeringer fra multinasjonale selskaper i FoU i Norge" style="whiteSpace=wrap;html=1;" vertex="1" parent="pSStkDloC_WOc6RokfLj-7">
          <mxGeometry x="45" y="250" width="200" height="80" as="geometry" />
        </mxCell>
        <mxCell id="pSStkDloC_WOc6RokfLj-13" value="Gjøre norsk FoU til forskningsfronten innen forskning ...?" style="whiteSpace=wrap;html=1;" vertex="1" parent="pSStkDloC_WOc6RokfLj-7">
          <mxGeometry x="80" y="364.5" width="120" height="60" as="geometry" />
        </mxCell>
        <mxCell id="pSStkDloC_WOc6RokfLj-14" value="Styrket samarbeid mellom FoU-aktive bedrifter og ledende forskningsmiljøer" style="whiteSpace=wrap;html=1;" vertex="1" parent="pSStkDloC_WOc6RokfLj-7">
          <mxGeometry x="80" y="520" width="120" height="60" as="geometry" />
        </mxCell>
        <mxCell id="pSStkDloC_WOc6RokfLj-15" value="Styrke teknologioverføring" style="whiteSpace=wrap;html=1;" vertex="1" parent="pSStkDloC_WOc6RokfLj-7">
          <mxGeometry x="85" y="610" width="120" height="60" as="geometry" />
        </mxCell>
        <mxCell id="otaZ61-eJIEUoGd5LH7k-3" value="Aktiviteter" style="swimlane;startSize=20;" parent="otaZ61-eJIEUoGd5LH7k-2" vertex="1">
          <mxGeometry x="290" y="20" width="290" height="750" as="geometry">
            <mxRectangle y="20" width="30" height="460" as="alternateBounds" />
          </mxGeometry>
        </mxCell>
        <mxCell id="9w3HFqVNliFKd6ctjNXA-2" value="Økonomisk støtte til langsiktig forskning og utvikling med:&amp;nbsp;&lt;br&gt;- krav om samfinansiering mellom offentlige og private.&lt;br&gt;- andre krav som punktliste ..." style="whiteSpace=wrap;html=1;" parent="otaZ61-eJIEUoGd5LH7k-3" vertex="1">
          <mxGeometry x="20" y="30" width="250" height="130" as="geometry" />
        </mxCell>
        <mxCell id="9w3HFqVNliFKd6ctjNXA-1" value="Resultater   " style="swimlane;startSize=20;" parent="otaZ61-eJIEUoGd5LH7k-2" vertex="1">
          <mxGeometry x="580" y="20" width="210" height="750" as="geometry">
            <mxRectangle y="20" width="30" height="460" as="alternateBounds" />
          </mxGeometry>
        </mxCell>
        <mxCell id="9w3HFqVNliFKd6ctjNXA-6" value="Økt offentlig støtte utløser næringslivets egne forskningsinvesteringer" style="whiteSpace=wrap;html=1;" parent="9w3HFqVNliFKd6ctjNXA-1" vertex="1">
          <mxGeometry x="20" y="30" width="170" height="130" as="geometry" />
        </mxCell>
        <mxCell id="9w3HFqVNliFKd6ctjNXA-11" value="Sentrene utvikler verdensledende forskning på bedriftsnære temaer&amp;nbsp;" style="whiteSpace=wrap;html=1;" parent="9w3HFqVNliFKd6ctjNXA-1" vertex="1">
          <mxGeometry x="30" y="200" width="160" height="130" as="geometry" />
        </mxCell>
        <mxCell id="pSStkDloC_WOc6RokfLj-16" value="Sentrene ansetter og utdanner doktorgradsstudenter i tilknytning til sentrene" style="whiteSpace=wrap;html=1;" vertex="1" parent="9w3HFqVNliFKd6ctjNXA-1">
          <mxGeometry x="30" y="360" width="160" height="100" as="geometry" />
        </mxCell>
        <mxCell id="9w3HFqVNliFKd6ctjNXA-10" value="" style="edgeStyle=orthogonalEdgeStyle;rounded=0;orthogonalLoop=1;jettySize=auto;html=1;" parent="otaZ61-eJIEUoGd5LH7k-2" source="9w3HFqVNliFKd6ctjNXA-2" target="9w3HFqVNliFKd6ctjNXA-6" edge="1">
          <mxGeometry relative="1" as="geometry" />
        </mxCell>
        <mxCell id="otaZ61-eJIEUoGd5LH7k-4" value="Virkninger / effekter " style="swimlane;startSize=20;" parent="otaZ61-eJIEUoGd5LH7k-2" vertex="1">
          <mxGeometry x="790" y="20" width="270" height="750" as="geometry">
            <mxRectangle x="120" y="20" width="30" height="460" as="alternateBounds" />
          </mxGeometry>
        </mxCell>
        <mxCell id="otaZ61-eJIEUoGd5LH7k-9" value="Styrke internasjonalisering" style="whiteSpace=wrap;html=1;" parent="otaZ61-eJIEUoGd5LH7k-4" vertex="1">
          <mxGeometry x="75" y="470" width="120" height="60" as="geometry" />
        </mxCell>
        <mxCell id="otaZ61-eJIEUoGd5LH7k-10" value="Styrke forskerutdanning på områder som er viktige for industri og forksningsmiljøer" style="whiteSpace=wrap;html=1;" parent="otaZ61-eJIEUoGd5LH7k-4" vertex="1">
          <mxGeometry x="72" y="320" width="120" height="70" as="geometry" />
        </mxCell>
        <mxCell id="otaZ61-eJIEUoGd5LH7k-11" value="Økt innovasjon" style="whiteSpace=wrap;html=1;" parent="otaZ61-eJIEUoGd5LH7k-4" vertex="1">
          <mxGeometry x="50" y="70" width="170" height="90" as="geometry" />
        </mxCell>
        <mxCell id="9w3HFqVNliFKd6ctjNXA-3" value="Økte investeringer fra multinasjonale selskaper i FoU i Norge" style="whiteSpace=wrap;html=1;" parent="otaZ61-eJIEUoGd5LH7k-4" vertex="1">
          <mxGeometry x="40" y="190" width="200" height="80" as="geometry" />
        </mxCell>
        <mxCell id="9w3HFqVNliFKd6ctjNXA-5" value="Gjøre norsk FoU til forskningsfronten innen forskning ...?" style="whiteSpace=wrap;html=1;" parent="otaZ61-eJIEUoGd5LH7k-4" vertex="1">
          <mxGeometry x="82" y="690" width="120" height="60" as="geometry" />
        </mxCell>
        <mxCell id="9w3HFqVNliFKd6ctjNXA-4" value="Styrket samarbeid mellom FoU-aktive bedrifter og ledende forskningsmiljøer" style="whiteSpace=wrap;html=1;" parent="otaZ61-eJIEUoGd5LH7k-4" vertex="1">
          <mxGeometry x="75" y="550" width="120" height="60" as="geometry" />
        </mxCell>
        <mxCell id="otaZ61-eJIEUoGd5LH7k-8" value="Styrke teknologioverføring" style="whiteSpace=wrap;html=1;" parent="otaZ61-eJIEUoGd5LH7k-4" vertex="1">
          <mxGeometry x="80" y="640" width="120" height="60" as="geometry" />
        </mxCell>
        <mxCell id="9w3HFqVNliFKd6ctjNXA-14" style="edgeStyle=orthogonalEdgeStyle;rounded=0;orthogonalLoop=1;jettySize=auto;html=1;" parent="otaZ61-eJIEUoGd5LH7k-2" source="9w3HFqVNliFKd6ctjNXA-6" target="otaZ61-eJIEUoGd5LH7k-11" edge="1">
          <mxGeometry relative="1" as="geometry" />
        </mxCell>
        <mxCell id="9w3HFqVNliFKd6ctjNXA-12" style="edgeStyle=orthogonalEdgeStyle;rounded=0;orthogonalLoop=1;jettySize=auto;html=1;" parent="otaZ61-eJIEUoGd5LH7k-2" source="9w3HFqVNliFKd6ctjNXA-11" target="9w3HFqVNliFKd6ctjNXA-3" edge="1">
          <mxGeometry relative="1" as="geometry" />
        </mxCell>
        <mxCell id="9w3HFqVNliFKd6ctjNXA-13" style="edgeStyle=orthogonalEdgeStyle;rounded=0;orthogonalLoop=1;jettySize=auto;html=1;entryX=0;entryY=0.5;entryDx=0;entryDy=0;" parent="otaZ61-eJIEUoGd5LH7k-2" source="9w3HFqVNliFKd6ctjNXA-2" target="9w3HFqVNliFKd6ctjNXA-11" edge="1">
          <mxGeometry relative="1" as="geometry" />
        </mxCell>
        <mxCell id="pSStkDloC_WOc6RokfLj-17" value="" style="edgeStyle=orthogonalEdgeStyle;rounded=0;orthogonalLoop=1;jettySize=auto;html=1;" edge="1" parent="otaZ61-eJIEUoGd5LH7k-2" source="pSStkDloC_WOc6RokfLj-16" target="otaZ61-eJIEUoGd5LH7k-10">
          <mxGeometry relative="1" as="geometry" />
        </mxCell>
      </root>
    </mxGraphModel>
  </diagram>
</mxfile>
